<svg width="142" height="163" viewBox="0 0 142 163" fill="none"
    xmlns="http://www.w3.org/2000/svg">
    <g filter="url(#filter0_i_181_8305)">
        <path d="M117.4 43.2918C123.757 53.9038 125.498 66.3543 122.238 77.9044C120.33 84.6647 107.95 87.4738 91.6382 85.8243C91.5317 86.3525 91.4044 86.8806 91.2556 87.4077C91.0897 87.9954 90.9005 88.5702 90.6893 89.1314C105.464 96.2545 114.555 105.125 112.647 111.887C109.387 123.438 101.394 133.141 90.4262 138.863C79.4586 144.586 66.4147 145.858 54.164 142.4C41.9134 138.943 31.4594 131.039 25.102 120.426C18.7448 109.815 17.0044 97.3651 20.2636 85.8156L20.2641 85.8138C22.1613 79.0918 34.4124 76.2764 50.587 77.8663C50.702 77.2607 50.8445 76.6549 51.0151 76.0504C51.1686 75.5065 51.3421 74.9736 51.5346 74.4523C36.9238 67.3523 27.9588 58.5506 29.8553 51.8308C33.1152 40.2807 41.1081 30.5772 52.0757 24.8549C63.0433 19.1326 76.0872 17.8604 88.3378 21.3179C100.588 24.7755 111.042 32.6797 117.4 43.2918Z" fill="white"/>
        <path fill-rule="evenodd" clip-rule="evenodd" d="M20.2636 85.8156L20.2641 85.8138C21.907 79.993 31.3138 77.1015 44.3092 77.4632C46.1099 77.5133 47.9795 77.6259 49.9069 77.8018C50.1328 77.8225 50.3595 77.844 50.587 77.8663C50.702 77.2607 50.8445 76.6549 51.0151 76.0504C51.1686 75.5065 51.3421 74.9736 51.5346 74.4523C51.3389 74.3572 51.1443 74.2619 50.9507 74.1662C49.2101 73.306 47.5523 72.4219 45.9864 71.5205C34.7195 65.0346 28.2125 57.6516 29.8553 51.8308C33.1152 40.2807 41.1081 30.5772 52.0757 24.8549C63.0433 19.1326 76.0872 17.8604 88.3378 21.3179C100.588 24.7755 111.042 32.6797 117.4 43.2918C123.757 53.9038 125.498 66.3543 122.238 77.9044C120.595 83.7253 111.188 86.6168 98.1927 86.255C96.2861 86.202 94.3024 86.0789 92.2546 85.8847C92.0497 85.8653 91.8443 85.8452 91.6382 85.8243C91.5317 86.3525 91.4044 86.8806 91.2556 87.4077C91.0897 87.9954 90.9005 88.5702 90.6893 89.1314C90.8855 89.226 91.0808 89.3209 91.275 89.4161C93.1166 90.319 94.867 91.2487 96.5154 92.1977C107.782 98.6836 114.289 106.067 112.647 111.887C109.387 123.438 101.394 133.141 90.4262 138.863C79.4586 144.586 66.4147 145.858 54.164 142.4C41.9134 138.943 31.4594 131.039 25.102 120.426C18.7448 109.815 17.0044 97.3651 20.2636 85.8156ZM107.071 91.9689C109.467 91.731 111.719 91.3569 113.792 90.8394C119.675 89.371 126.137 86.1795 128.012 79.5342C131.736 66.3392 129.724 52.1887 122.547 40.2083C115.378 28.242 103.644 19.4034 89.9676 15.5435C76.2916 11.6837 61.6675 13.0829 49.3003 19.5354C36.9184 25.9956 27.805 37.0061 24.0809 50.201C22.2161 56.8083 26.0038 62.8758 30.2092 67.188C31.7251 68.7425 33.4779 70.2675 35.4306 71.7493C32.9937 71.9913 30.7043 72.3744 28.601 72.9061C22.7593 74.3829 16.3551 77.5747 14.4897 84.1841L14.4891 84.186C10.7658 97.3804 12.778 111.53 19.9549 123.51C27.1237 135.476 38.8583 144.315 52.5343 148.175C66.2103 152.035 80.8344 150.635 93.2016 144.183C105.583 137.723 114.697 126.712 118.421 113.517C120.297 106.87 116.455 100.769 112.206 96.4414C110.71 94.918 108.987 93.4228 107.071 91.9689Z" fill="white"/>
    </g>
    <mask id="mask0_181_8305" style="mask-type:alpha" maskUnits="userSpaceOnUse" x="29" y="19" width="95" height="60">
        <path d="M122.185 78.0847C125.445 66.5346 123.705 54.0841 117.347 43.4721C110.99 32.86 100.536 24.9558 88.285 21.4982C76.0343 18.0407 62.9904 19.313 52.0228 25.0352C41.0552 30.7575 33.0623 40.461 29.8025 52.0111L75.9937 65.0479L122.185 78.0847Z" fill="#725DF6"/>
    </mask>
    <g mask="url(#mask0_181_8305)">
        <mask id="path-3-inside-1_181_8305" fill="white">
            <path d="M122.185 78.0847C125.445 66.5346 123.705 54.0841 117.347 43.4721C110.99 32.86 100.536 24.9558 88.285 21.4982C76.0343 18.0407 62.9904 19.313 52.0228 25.0352C41.0552 30.7575 33.0623 40.461 29.8025 52.0111L75.9937 65.0479L122.185 78.0847Z"/>
        </mask>
        <path d="M122.185 78.0847C125.445 66.5346 123.705 54.0841 117.347 43.4721C110.99 32.86 100.536 24.9558 88.285 21.4982C76.0343 18.0407 62.9904 19.313 52.0228 25.0352C41.0552 30.7575 33.0623 40.461 29.8025 52.0111L75.9937 65.0479L122.185 78.0847Z" fill="black" stroke="black" stroke-width="1.5" mask="url(#path-3-inside-1_181_8305)"/>
        <circle cx="109.052" cy="30.0868" r="49.6875" transform="rotate(15.761 109.052 30.0868)" fill="#725DF6"/>
        <mask id="path-5-inside-2_181_8305" fill="white">
            <path d="M122.185 78.0847C125.445 66.5346 123.705 54.0841 117.347 43.4721C110.99 32.86 100.536 24.9558 88.285 21.4982C76.0343 18.0407 62.9904 19.313 52.0228 25.0352C41.0552 30.7575 33.0623 40.461 29.8025 52.0111L75.9937 65.0479L122.185 78.0847Z"/>
        </mask>
        <path d="M122.185 78.0847C125.445 66.5346 123.705 54.0841 117.347 43.4721C110.99 32.86 100.536 24.9558 88.285 21.4982C76.0343 18.0407 62.9904 19.313 52.0228 25.0352C41.0552 30.7575 33.0623 40.461 29.8025 52.0111L75.9937 65.0479L122.185 78.0847Z" stroke="black" stroke-width="1.5" mask="url(#path-5-inside-2_181_8305)"/>
    </g>
    <path d="M121.824 77.9833C121.202 80.1863 119.384 81.9881 116.528 83.3354C113.673 84.6821 109.823 85.5519 105.235 85.9077C96.063 86.6191 84.0237 85.2702 71.2995 81.679C58.5753 78.0877 47.6072 72.9432 40.1603 67.5412C36.4356 64.8393 33.6088 62.0852 31.879 59.4444C30.1486 56.8026 29.5412 54.3164 30.1629 52.1134C30.7847 49.9104 32.6023 48.1086 35.4586 46.7613C38.3138 45.4146 42.1634 44.5448 46.7511 44.189C55.9235 43.4776 67.9628 44.8265 80.687 48.4177C93.4112 52.009 104.379 57.1535 111.826 62.5555C115.551 65.2574 118.378 68.0115 120.107 70.6523C121.838 73.2941 122.445 75.7803 121.824 77.9833Z" fill="#A465AC" stroke="black" stroke-width="0.75"/>
    <path d="M111.97 75.2023C111.493 76.8911 110.087 78.2815 107.847 79.3238C105.608 80.3655 102.583 81.0361 98.9678 81.3041C91.7417 81.8399 82.2466 80.7605 72.2032 77.9259C62.1598 75.0913 53.5015 71.0471 47.6217 66.8124C44.6805 64.6941 42.4517 62.5404 41.0881 60.4821C39.7236 58.4224 39.2516 56.5019 39.7283 54.8131C40.205 53.1242 41.6114 51.7338 43.8514 50.6915C46.0899 49.6499 49.1158 48.9792 52.7305 48.7112C59.9567 48.1755 69.4518 49.2549 79.4951 52.0895C89.5385 54.9241 98.1969 58.9682 104.077 63.2029C107.018 65.3213 109.247 67.475 110.61 69.5333C111.975 71.5929 112.447 73.5134 111.97 75.2023Z" fill="#CC6A71" stroke="black" stroke-width="0.75"/>
    <path d="M101.689 72.3005C101.357 73.4772 100.376 74.4604 98.7813 75.2053C97.1883 75.9495 95.0281 76.4326 92.4385 76.6272C87.2625 77.0161 80.455 76.2465 73.2506 74.2132C66.0462 72.1799 59.8409 69.2767 55.632 66.239C53.5262 64.7192 51.9374 63.1781 50.9686 61.7108C49.999 60.2424 49.6764 58.8911 50.0085 57.7144C50.3406 56.5377 51.322 55.5545 52.9163 54.8097C54.5093 54.0654 56.6695 53.5824 59.2591 53.3878C64.4351 52.9988 71.2426 53.7684 78.447 55.8017C85.6513 57.835 91.8567 60.7382 96.0656 63.7759C98.1713 65.2957 99.7602 66.8369 100.729 68.3041C101.699 69.7726 102.021 71.1238 101.689 72.3005Z" fill="black" stroke="black" stroke-width="0.75"/>
    <mask id="mask1_181_8305" style="mask-type:alpha" maskUnits="userSpaceOnUse" x="18" y="85" width="95" height="60">
        <path d="M112.594 112.068C109.334 123.618 101.341 133.322 90.3733 139.044C79.4057 144.766 66.3618 146.038 54.1111 142.581C41.8605 139.123 31.4065 131.219 25.049 120.607C18.6916 109.995 16.9514 97.5444 20.2112 85.9943L66.4024 99.0311L112.594 112.068Z" fill="#725DF6"/>
    </mask>
    <g mask="url(#mask1_181_8305)">
        <mask id="path-10-inside-3_181_8305" fill="white">
            <path d="M112.594 112.068C109.334 123.618 101.341 133.322 90.3733 139.044C79.4057 144.766 66.3618 146.038 54.1111 142.581C41.8605 139.123 31.4065 131.219 25.049 120.607C18.6916 109.995 16.9514 97.5444 20.2112 85.9943L66.4024 99.0311L112.594 112.068Z"/>
        </mask>
        <path d="M112.594 112.068C109.334 123.618 101.341 133.322 90.3733 139.044C79.4057 144.766 66.3618 146.038 54.1111 142.581C41.8605 139.123 31.4065 131.219 25.049 120.607C18.6916 109.995 16.9514 97.5444 20.2112 85.9943L66.4024 99.0311L112.594 112.068Z" fill="black" stroke="black" stroke-width="1.5" mask="url(#path-10-inside-3_181_8305)"/>
        <circle cx="34.0962" cy="120.665" r="39.4688" transform="rotate(15.761 34.0962 120.665)" fill="black"/>
        <circle cx="82.0828" cy="93.1966" r="49.6875" transform="rotate(15.761 82.0828 93.1966)" fill="#725DF6"/>
        <mask id="path-13-inside-4_181_8305" fill="white">
            <path d="M112.594 112.068C109.334 123.618 101.341 133.322 90.3733 139.044C79.4057 144.766 66.3618 146.038 54.1111 142.581C41.8605 139.123 31.4065 131.219 25.049 120.607C18.6916 109.995 16.9514 97.5444 20.2112 85.9943L66.4024 99.0311L112.594 112.068Z"/>
        </mask>
        <path d="M112.594 112.068C109.334 123.618 101.341 133.322 90.3733 139.044C79.4057 144.766 66.3618 146.038 54.1111 142.581C41.8605 139.123 31.4065 131.219 25.049 120.607C18.6916 109.995 16.9514 97.5444 20.2112 85.9943L66.4024 99.0311L112.594 112.068Z" stroke="black" stroke-width="1.5" mask="url(#path-13-inside-4_181_8305)"/>
    </g>
    <path d="M112.233 111.966C112.855 109.763 112.248 107.277 110.517 104.635C108.787 101.994 105.961 99.2402 102.236 96.5383C94.7888 91.1363 83.8208 85.9918 71.0966 82.4005C58.3724 78.8093 46.3331 77.4604 37.1607 78.1718C32.573 78.5276 28.7234 79.3974 25.8682 80.7441C23.0119 82.0914 21.1943 83.8932 20.5725 86.0962C19.9508 88.2992 20.5582 90.7854 22.2886 93.4272C24.0184 96.068 26.8452 98.8221 30.5699 101.524C38.0168 106.926 48.9849 112.071 61.7091 115.662C74.4333 119.253 86.4726 120.602 95.6449 119.891C100.233 119.535 104.082 118.665 106.937 117.318C109.794 115.971 111.611 114.169 112.233 111.966Z" fill="#A465AC" stroke="black" stroke-width="0.75"/>
    <path d="M102.38 109.186C102.856 107.497 102.384 105.576 101.02 103.517C99.6563 101.458 97.4276 99.3046 94.4864 97.1863C88.6066 92.9516 79.9482 88.9074 69.9049 86.0728C59.8615 83.2382 50.3664 82.1588 43.1402 82.6946C39.5255 82.9626 36.4996 83.6332 34.2611 84.6749C32.0211 85.7172 30.6147 87.1076 30.138 88.7964C29.6614 90.4853 30.1333 92.4058 31.4978 94.4654C32.8615 96.5237 35.0902 98.6774 38.0314 100.796C43.9112 105.03 52.5696 109.075 62.6129 111.909C72.6563 114.744 82.1514 115.823 89.3776 115.287C92.9923 115.019 96.0182 114.349 98.2567 113.307C100.497 112.265 101.903 110.874 102.38 109.186Z" fill="#CC6A71" stroke="black" stroke-width="0.75"/>
    <path d="M92.099 106.284C92.4311 105.107 92.1085 103.756 91.1389 102.288C90.1701 100.82 88.5812 99.2791 86.4755 97.7593C82.2666 94.7216 76.0612 91.8184 68.8569 89.7851C61.6525 87.7518 54.8449 86.9822 49.6689 87.3712C47.0793 87.5658 44.9192 88.0488 43.3262 88.7931C41.7319 89.5379 40.7505 90.5211 40.4184 91.6978C40.0863 92.8745 40.4088 94.2258 41.3784 95.6942C42.3473 97.1615 43.9361 98.7026 46.0419 100.222C50.2507 103.26 56.4561 106.163 63.6605 108.197C70.8648 110.23 77.6724 111 82.8484 110.611C85.438 110.416 87.5982 109.933 89.1911 109.189C90.7854 108.444 91.7668 107.461 92.099 106.284Z" fill="black" stroke="black" stroke-width="0.75"/>
    <path d="M90.8415 87.4864C87.747 98.4506 76.3911 104.839 65.4799 101.759C54.5686 98.6796 48.2283 87.297 51.3228 76.3328C54.4173 65.3687 65.7731 58.9805 76.6844 62.0601C87.5957 65.1396 93.936 76.5223 90.8415 87.4864Z" fill="#FF8A35" stroke="black" stroke-width="0.75"/>
    <path d="M80.5745 82.2639C81.6564 79.867 80.1252 77.9822 77.7655 76.3472L79.5701 73.196L77.6457 72.0975L75.8888 75.1657C75.3829 74.877 74.8601 74.5917 74.3405 74.3086L76.1095 71.2204L74.1863 70.1223L72.3815 73.2721C71.9601 73.0428 71.5465 72.8169 71.1474 72.5894L71.1528 72.5795L68.4993 71.0633L67.3266 73.1122C67.3266 73.1122 68.7631 73.8965 68.7245 73.9091C69.5038 74.3543 69.4992 74.9502 69.3501 75.3815L64.4063 84.0139C64.2321 84.2389 63.8647 84.5464 63.3196 84.2365C63.3317 84.2723 61.921 83.4375 61.921 83.4375L60.2269 85.5099L62.731 86.9395C63.1967 87.2061 63.6507 87.4758 64.0992 87.7356L62.2749 90.9231L64.1969 92.0209L66.0027 88.8675C66.5242 89.1797 67.0326 89.4755 67.5315 89.7597L65.7332 92.8981L67.6575 93.9965L69.48 90.8154C72.821 92.4774 75.5505 92.9577 77.5658 90.0901C79.1892 87.7813 78.6615 86.0363 77.0769 84.5483C78.5168 84.6189 79.7857 84.0194 80.5745 82.2639ZM73.9799 87.5416C72.617 89.9239 68.681 87.3172 67.3762 86.5738L69.7948 82.3515C71.0991 83.0966 75.4026 85.0575 73.9799 87.5416ZM76.4966 81.073C75.2552 83.2395 71.988 81.0387 70.9017 80.4186L73.095 76.5889C74.1813 77.209 77.7907 78.8128 76.4966 81.073Z" fill="white"/>
    <defs>
        <filter id="filter0_i_181_8305" x="12.2812" y="12.8462" width="117.564" height="137.463" filterUnits="userSpaceOnUse" color-interpolation-filters="sRGB">
            <feFlood flood-opacity="0" result="BackgroundImageFix"/>
            <feBlend mode="normal" in="SourceGraphic" in2="BackgroundImageFix" result="shape"/>
            <feColorMatrix in="SourceAlpha" type="matrix" values="0 0 0 0 0 0 0 0 0 0 0 0 0 0 0 0 0 0 127 0" result="hardAlpha"/>
            <feOffset dx="-0.375" dy="-0.5625"/>
            <feGaussianBlur stdDeviation="0.9375"/>
            <feComposite in2="hardAlpha" operator="arithmetic" k2="-1" k3="1"/>
            <feColorMatrix type="matrix" values="0 0 0 0 0 0 0 0 0 0 0 0 0 0 0 0 0 0 0.25 0"/>
            <feBlend mode="normal" in2="shape" result="effect1_innerShadow_181_8305"/>
        </filter>
    </defs>
</svg>
