<svg width="436" height="436" viewBox="0 0 436 436" fill="none" xmlns="http://www.w3.org/2000/svg">
<g clip-path="url(#clip0_259_9573)">
<path d="M322.994 195.062C324.885 194.065 326.577 193.173 328.39 192.221C328.303 192.108 328.205 191.898 328.039 191.777C323.747 188.598 323.337 183.906 326.931 179.835C330.568 175.723 338.458 173.413 344.069 177.047C343.711 176.182 343.462 175.603 343.225 175.016C342.151 172.389 342.596 169.951 344.303 167.773C347.69 163.45 355.362 161.234 360.589 162.991C364.839 164.42 365.883 167.596 363.192 171.14C362.258 172.371 361.116 173.443 360.005 174.658C361.346 174.658 362.627 174.594 363.897 174.669C369.968 175.023 372.628 179.715 369.832 185.08C368.449 187.736 366.331 189.629 363.686 190.957C362.695 191.454 361.67 191.89 360.611 192.379C367.59 196.766 366.991 206.03 359.496 210.62C358.169 211.433 356.715 212.042 355.057 212.877C359.27 214.36 361.508 217.347 362.149 221.689C363.441 220.854 364.526 219.985 365.751 219.409C367.891 218.401 370.062 217.389 372.323 216.711C375.733 215.684 379.192 214.706 382.7 214.123C389.494 212.99 396.006 214.789 402.483 216.557C403.207 216.753 403.892 217.152 404.623 217.238C411.048 217.983 416.418 221.324 421.968 224.21C423.362 224.932 424.534 225.896 423.758 227.784C423.076 229.44 421.893 229.974 419.771 229.658C417.729 229.353 415.675 229.082 413.618 228.909C411.9 228.763 410.083 228.398 408.712 229.982C408.603 230.106 408.373 230.136 408.192 230.185C403.926 231.321 399.646 232.397 395.403 233.601C391.736 234.64 388.074 235.704 384.475 236.953C377.195 239.486 369.96 242.157 362.703 244.768C362.19 244.952 361.674 245.129 360.803 245.43C361.994 245.84 362.801 246.187 363.645 246.393C366.923 247.206 369.824 248.745 372.568 250.683C375.017 252.41 376.543 256.612 375.251 259.295C373.351 263.242 371.456 267.23 369.09 270.902C365.359 276.681 365.25 281.896 369.406 287.657C373.219 292.947 375.872 299.004 376.89 305.536C378.137 313.539 378.069 321.605 375.254 329.27C373.498 334.052 370.005 337.769 366.132 341.23C360.167 346.554 353.263 348.624 345.493 348.951C336.902 349.312 328.593 348.01 320.518 345.222C313.524 342.807 307.879 338.563 303.433 332.573C300.743 328.946 298.934 324.943 298.135 320.676C297.442 316.974 297.849 313.068 297.769 309.253C297.758 308.76 297.769 308.264 297.769 307.616C296.963 307.436 296.179 307.255 295.396 307.09C267.696 301.292 239.985 295.531 212.304 289.643C209.123 288.966 206.241 290.2 203.196 290.241C202.804 290.245 202.311 290.896 202.058 291.355C199.379 296.197 195.52 299.858 190.844 302.744C190.068 303.226 189.288 303.892 188.828 304.659C185.753 309.821 180.745 312.767 175.967 315.973C171.811 318.761 167.24 320.413 162.195 320.322C159.764 320.277 157.266 320.134 154.937 319.521C152.887 318.979 150.973 318.817 148.874 319.039C138.414 320.153 130.086 315.879 123.085 308.512C121.408 306.747 119.803 305.069 117.538 303.888C107.673 298.733 101.783 290.441 99.0515 279.755C98.7425 278.548 98.0454 277.317 97.2013 276.395C92.5589 271.32 89.5142 265.454 88.1162 258.738C87.2006 254.332 87.2194 249.923 88.1087 245.506C88.2444 244.828 88.2594 243.974 87.958 243.391C84.6495 237.01 82.9689 230.32 83.8394 223.104C83.8771 222.795 83.8808 222.479 83.8771 222.167C83.8771 222.05 83.8017 221.934 83.7075 221.655C81.0886 222.664 78.4471 223.6 75.8848 224.729C75.3949 224.944 74.9993 225.88 74.9578 226.509C74.6413 231.336 73.4091 235.892 71.005 240.099C68.5821 244.332 65.3113 247.699 60.782 249.697C58.1405 250.86 55.4688 251.954 52.8236 253.106C43.4748 257.169 34.8871 255.243 27.3169 249.121C15.6469 239.681 10.8764 227.103 12.2178 212.332C12.9338 204.438 16.2422 197.602 22.7988 192.763C25.4215 190.829 28.4134 189.433 31.6955 188.94C34.9135 188.455 36.4622 187.277 36.8353 183.47C37.5663 176.054 40.9011 169.62 46.9076 164.793C50.1896 162.155 54.0294 160.887 58.0237 160.037C61.7428 159.243 65.5336 158.78 69.2716 158.047C69.8444 157.934 70.4925 157.253 70.7525 156.673C72.2899 153.272 74.2984 150.228 76.9474 147.576C80.7721 143.742 85.4898 141.733 90.6861 140.698C93.9984 140.04 97.3256 139.381 100.676 139.027C104.285 138.644 107.76 139.539 111.14 140.841C111.697 141.055 112.704 140.943 113.118 140.563C120.014 134.204 128.673 132.857 137.475 132.097C139.8 131.898 141.323 131.36 142.619 129.245C151.199 115.241 162.88 104.443 177.437 96.8576C187.43 91.6504 198.098 88.5087 209.361 87.4552C231.8 85.3558 252.454 90.5856 271.434 102.558C291.096 114.959 305.163 132.15 314.251 153.385C319.602 165.88 322.41 179.023 322.824 192.639C322.847 193.422 322.933 194.2 322.997 195.066L322.994 195.062ZM309.522 285.083C308.222 286.949 306.983 288.657 305.826 290.414C304.797 291.976 303.471 293.481 302.954 295.212C301.018 301.709 299.861 308.309 300.087 315.19C300.279 321.045 301.858 326.188 305.227 330.94C309.36 336.768 314.813 340.764 321.528 343.044C329.381 345.712 337.437 346.953 345.768 346.524C352.593 346.174 358.908 344.696 363.999 339.771C365.212 338.597 366.614 337.603 367.778 336.384C370.488 333.551 372.432 330.282 373.574 326.478C375.318 320.661 375.522 314.75 374.787 308.824C374.391 305.634 373.8 302.342 372.553 299.414C370.552 294.715 367.985 290.249 365.551 285.741C363.991 282.856 362.748 279.951 363.908 276.644C364.53 274.879 365.284 273.145 366.147 271.482C368.336 267.26 370.676 263.11 372.843 258.877C373.672 257.26 373.024 254.043 371.878 253.102C367.997 249.923 363.29 248.689 358.392 247.281C359.662 252.447 355.498 254.517 352.747 257.677C358.795 257.538 364.496 257.591 369.579 254.329C370.032 254.039 370.879 254.355 371.543 254.389C371.271 255.04 371.185 255.939 370.699 256.296C368.717 257.745 366.557 258.87 364.014 259.054C359.707 259.367 355.411 259.908 351.1 259.991C348.666 260.04 347.008 260.83 345.87 262.888C345.474 263.599 345.098 264.322 344.683 265.022C342.599 268.539 339.796 271.301 335.76 272.332C334.046 272.768 332.847 273.495 331.815 274.86C329.859 277.449 327.15 278.224 323.988 277.916C323.412 277.859 322.553 278.235 322.206 278.698C320.254 281.294 318.438 283.992 316.531 286.626C314.918 288.849 312.914 288.913 311.052 286.851C310.596 286.347 310.163 285.824 309.519 285.079L309.522 285.083ZM292.675 123.688C291.925 127.21 291.168 130.592 290.527 133.997C290.444 134.43 290.844 135.126 291.228 135.438C292.441 136.42 293.839 137.18 295.019 138.196C300.113 142.591 303.056 148.182 304.19 154.785C304.315 155.507 304.71 156.369 305.264 156.801C314.218 163.785 317.801 174.485 314.854 185.468C314.662 186.175 314.764 187.078 315.028 187.778C318.864 197.876 317.405 206.914 309.779 214.8C309.206 215.391 308.72 216.245 308.573 217.042C306.794 226.772 300.11 232.341 291.725 236.009C287.942 237.665 284.08 239.064 280.726 241.491C277.843 243.579 275.127 245.901 272.282 248.041C270.488 249.392 268.269 250.306 266.791 251.921C260.909 258.362 254.221 263.174 245.207 263.987C244.665 264.036 243.922 264.559 243.696 265.052C240.037 273.028 233.142 277.475 225.677 281.05C222.64 282.506 219.399 283.51 216.671 285.587C215.827 286.231 214.896 286.757 213.683 287.547C242.084 293.492 269.998 299.332 298.007 305.193C298.862 301.679 299.65 298.342 300.494 295.016C300.69 294.241 300.931 293.421 301.372 292.77C303.369 289.809 305.472 286.923 307.454 283.954C307.736 283.529 307.766 282.671 307.529 282.212C305.766 278.845 303.927 275.515 302.046 272.212C301.7 271.606 301.153 270.959 300.539 270.688C297.212 269.224 295.347 266.756 294.732 263.185C294.551 262.139 294.05 261.014 293.353 260.221C290.418 256.876 289.807 252.112 291.865 248.147C292.954 246.044 293.805 243.816 294.876 241.702C295.52 240.43 296.13 238.955 297.185 238.105C300.467 235.471 304.247 233.804 308.539 233.68C311.523 233.594 314.511 233.665 318.016 233.665C317.669 232.047 317.59 230.557 317.036 229.27C315.295 225.226 315.265 221.219 317.741 217.618C320.126 214.149 319.632 210.432 319.644 206.673C319.651 204.453 319.772 202.226 319.93 200.01C320.009 198.9 320.416 197.809 320.443 196.702C320.62 188.903 319.787 181.175 318.133 173.575C314.462 156.715 307.148 141.533 296.454 127.985C295.226 126.431 293.843 124.997 292.686 123.688H292.675ZM196.541 280.124C196.368 278.476 196.308 276.903 196.025 275.368C194.567 267.452 191.089 260.533 185.309 254.897C177.889 247.661 169.192 243.609 158.585 245.396C150.125 246.822 144.3 251.872 141.025 259.66C138.323 266.09 138.274 272.768 139.91 279.552C143.169 293.075 155.404 305.984 170.194 307.135C176.536 307.628 182.283 306.089 187.219 302.056C194.175 296.37 196.549 288.703 196.541 280.124ZM265.898 102.057C219.294 75.3137 165.936 93.4376 144.827 130.615C149.477 129.659 154.029 128.387 158.792 129.301C159.173 129.373 159.738 129.042 160.066 128.733C163.868 125.174 168.341 122.92 173.416 121.833C177.889 120.877 182.347 119.816 186.985 120.685C187.513 120.783 188.176 120.501 188.696 120.238C196.33 116.366 204.236 114.342 212.812 116.547C213.329 116.678 214.06 116.524 214.516 116.231C217.85 114.112 221.524 112.901 225.368 112.224C230.097 111.388 234.841 110.579 239.604 109.985C242.37 109.639 245.196 109.612 247.988 109.699C249.141 109.733 249.895 109.552 250.814 108.822C252.567 107.43 254.413 106.019 256.452 105.158C259.466 103.886 262.684 103.085 265.895 102.057H265.898ZM14.2338 218.205C14.0982 222.088 15.4509 228.42 18.4127 234.335C22.6557 242.808 28.7299 249.403 38.2144 252.075C43.9157 253.681 49.3041 252.681 54.1387 249.336C60.164 245.163 62.8092 238.963 63.7852 231.987C64.9043 224.003 63.4461 216.343 59.7721 209.235C55.3294 200.638 48.9725 194.114 39.1263 191.717C32.5659 190.122 24.227 193.124 20.1461 198.512C16.3289 203.55 14.6106 209.232 14.2376 218.209L14.2338 218.205ZM313.532 286.163C314.082 285.685 314.421 285.486 314.628 285.192C316.584 282.446 318.528 279.688 320.45 276.918C321.162 275.891 321.92 274.969 323.34 275.331C326.735 276.2 329.121 274.857 331.073 272.144C331.634 271.361 332.682 270.646 333.62 270.462C338.127 269.574 340.99 266.809 343.138 262.952C343.99 261.421 345.128 259.953 346.432 258.795C347.961 257.433 349.94 256.571 351.5 255.235C353.094 253.87 354.507 252.263 355.829 250.626C356.677 249.577 356.478 248.309 355.389 247.458C352.491 245.193 349.292 243.579 345.618 242.891C342.155 242.243 338.605 241.739 335.323 240.539C329.919 238.56 324.441 238.315 318.834 238.714C317.771 238.79 316.701 238.985 315.649 238.917C315.227 238.891 314.579 238.349 314.519 237.966C314.462 237.597 314.956 237.036 315.344 236.731C315.642 236.498 316.151 236.536 316.565 236.453C311.979 235.742 307.405 235.55 303.049 237.333C300.814 238.248 298.568 239.354 297.449 241.781C296.168 244.557 294.74 247.274 293.583 250.103C292.438 252.91 292.731 255.788 294.729 258.061C296.179 259.713 296.714 261.534 297.355 263.509C297.879 265.119 298.945 267.219 300.309 267.761C303.474 269.017 304.345 271.557 305.472 274.217C307.348 278.645 310.525 282.212 313.524 286.163H313.532ZM125.308 195.231C125.696 195.468 125.934 195.675 126.212 195.777C133.41 198.388 140.441 197.997 146.986 194.016C153.743 189.904 157.594 183.534 158.958 175.911C161.128 163.8 158.08 152.998 149.292 144.205C141.952 136.857 133.135 134.095 122.964 137.289C119.886 138.256 117.048 139.874 114.878 142.455C134.273 154.593 136.669 181.337 125.308 195.231ZM98.2978 204.498C104.802 204.581 110.145 202.388 114.395 197.97C120.432 191.698 122.651 183.936 122.248 175.392C121.804 165.952 118.375 157.738 111.648 151.007C103.939 143.298 92.2537 140.077 82.1437 146.462C77.7462 149.239 74.6526 153.189 72.7911 158.288C83.2101 160.425 90.2566 166.821 94.9969 175.753C99.7373 184.689 100.996 194.242 98.2978 204.498ZM160.608 142.463C160.567 142.707 160.522 142.952 160.48 143.2C165.59 149.848 168.649 157.253 168.823 165.692C169.049 176.822 165.405 186.171 156.094 192.846C154.794 193.779 153.343 194.498 151.489 195.593C154.315 197.263 156.787 198.926 159.433 200.254C167.398 204.254 175.395 203.847 182.927 199.34C191.812 194.024 195.55 185.524 195.916 175.535C196.199 167.822 193.945 160.707 189.352 154.427C184.223 147.422 177.444 143.016 168.729 142.068C166.068 141.778 163.318 142.308 160.608 142.466V142.463ZM75.1613 222.156C81.5672 219.304 85.2713 214.367 87.4267 208.193C89.8722 201.184 89.8308 194.046 87.7658 186.946C84.755 176.581 78.9445 168.416 68.729 164.104C63.122 161.738 57.368 161.809 51.7873 164.563C45.8374 167.498 42.3707 172.517 40.3246 178.567C39.4428 181.182 39.1452 183.993 38.5347 186.961C40.1626 186.706 41.2629 186.412 42.3707 186.374C50.8943 186.081 57.8164 189.599 63.6156 195.551C69.0945 201.172 72.5198 207.915 74.1175 215.575C74.5471 217.641 74.7882 219.744 75.1651 222.156H75.1613ZM174.777 205.484C177.927 210.266 182.226 213.942 187.554 216.489C193.527 219.345 199.786 220.049 206.052 218.141C218.077 214.484 224.52 203.949 224.795 192.12C224.98 184.177 222.489 177.059 217.651 170.828C213.856 165.94 208.995 162.392 202.785 160.417C202.951 161.245 203.109 161.892 203.211 162.55C203.66 165.512 204.342 168.465 204.492 171.441C205.099 183.639 198.324 196.514 185.896 201.041C182.219 202.38 178.624 203.941 174.78 205.484H174.777ZM187.238 219.033C187.475 219.815 187.573 220.214 187.72 220.598C189.45 225.158 191.914 229.259 195.4 232.698C202.314 239.519 210.499 242.842 220.296 241.412C230.485 239.926 239.114 231.261 240.9 221.14C242.215 213.694 241.119 206.669 237.656 200.032C236.412 197.647 234.675 195.514 233.164 193.264C232.995 193.324 232.825 193.384 232.656 193.448C230.937 203.938 225.409 211.515 215.97 216.523C206.772 221.403 197.487 223.348 187.234 219.033H187.238ZM244.171 229.451C239.035 235.783 232.656 239.888 225.368 242.514C215.929 245.919 207.062 244.113 198.9 238.643C196.251 236.867 193.96 234.553 191.432 232.423C191.266 237.093 192.208 241.51 194.247 245.656C199.737 256.808 208.411 263.55 221.114 264.1C228.857 264.435 235.418 261.334 240.173 255.258C246.195 247.564 246.888 238.816 244.167 229.451H244.171ZM238.372 140.608C238.281 140.773 238.191 140.939 238.101 141.108C238.176 141.341 238.248 141.575 238.327 141.808C242.404 153.393 240.995 164.01 232.486 173.206C230.911 174.91 230.003 176.272 231.34 178.443C231.683 179 231.744 179.76 231.823 180.441C232.019 182.119 232.949 183.154 234.272 184.2C236.861 186.25 239.352 188.47 241.594 190.886C242.566 191.935 243.169 192.146 244.371 191.574C252.668 187.609 257.307 181.002 258.709 172.009C260.495 160.549 254.432 148.332 244.194 142.978C242.347 142.011 240.316 141.39 238.372 140.611V140.608ZM131.59 229.726C131.247 228.255 131.043 227.22 130.757 226.208C128.108 216.779 122.633 209.687 113.559 205.604C111.615 204.728 109.742 204.656 107.583 205.367C104.949 206.233 102.104 206.553 99.319 206.835C98.132 206.955 97.3671 207.079 96.8508 208.268C94.8876 212.78 91.9334 216.489 87.9165 219.413C87.0913 220.011 86.4394 221.328 86.3565 222.366C86.1342 225.158 86.0438 227.999 86.3151 230.779C86.6504 234.233 87.6226 237.57 89.4803 240.784C90.4977 239.083 91.3003 237.533 92.2951 236.118C97.0091 229.444 104.455 227.457 111.645 225.109C113.095 224.635 114.735 224.635 116.291 224.605C121.815 224.492 126.653 226.584 131.59 229.729V229.726ZM266.121 167.043C265.156 181.227 257.111 189.753 244.073 194.215C247.491 200.171 249.352 206.263 249.236 212.806C258.754 214.683 270.07 208.197 274.004 199.321C279.618 186.653 274.026 172.732 266.121 167.047V167.043ZM97.6648 273.502C98.0303 273.216 98.1132 273.186 98.117 273.145C98.1396 272.896 98.1509 272.648 98.1546 272.4C98.3054 263.4 101.079 255.612 108.984 250.525C111.848 248.681 115.07 247.345 118.243 246.051C120.417 245.163 122.757 244.524 125.082 244.192C127.249 243.884 129.494 244.125 131.936 244.125C131.639 243.575 131.488 243.244 131.292 242.947C127.252 236.833 121.924 232.454 114.738 230.448C105.05 227.743 94.8424 232.935 91.5189 242.424C88.4554 251.168 89.6461 259.573 93.8514 267.64C94.9216 269.691 96.3798 271.538 97.6723 273.502H97.6648ZM201.173 127.687C201.417 127.992 201.617 128.289 201.862 128.545C208.935 135.931 211.799 144.716 210.54 154.826C210.382 156.087 210.77 156.613 211.885 157.035C215.804 158.513 219.282 160.737 222.165 163.77C224.245 165.959 226.129 168.333 228.096 170.621C234.705 162.144 235.369 147.44 226.623 136.495C219.991 128.195 209.214 124.877 201.173 127.687ZM136.959 264.269C131.394 269.837 129.434 276.249 129.51 283.375C129.585 290.452 131.759 296.931 135.753 302.767C141.553 311.236 149.262 316.835 159.723 317.869C167.38 318.625 173.718 315.792 178.782 310.07C179.053 309.765 179.193 309.34 179.438 308.892C156.301 314.34 132.55 290.441 136.955 264.273L136.959 264.269ZM116.849 301.074C116.977 300.916 117.105 300.754 117.233 300.596C117.127 300.37 117.022 300.144 116.913 299.918C112.707 291.122 111.219 282.077 114.618 272.663C116.773 266.696 120.831 262.32 126.446 259.427C129.472 257.865 132.599 256.503 135.719 255.032C132.445 251.691 124.249 248.997 119.287 249.52C108.826 250.623 102.571 257.549 101.026 267.091C99.1871 278.457 103.068 288.168 110.959 296.333C112.696 298.131 114.874 299.505 116.849 301.077V301.074ZM280.006 199.49C272.316 210.161 262.33 215.838 248.821 215.628C248.911 217.024 248.629 218.559 249.16 219.733C251.029 223.871 252.582 228.059 253.151 232.593C253.211 233.063 253.919 233.755 254.394 233.816C256.436 234.083 258.532 234.433 260.559 234.244C270.71 233.3 277.776 228.093 281.159 218.435C283.379 212.095 282.802 205.766 280.006 199.498V199.49ZM146.847 317.098C146.892 316.883 146.937 316.669 146.986 316.455C145.788 315.691 144.537 315.002 143.407 314.152C135.282 308.034 129.89 300.103 127.893 290.091C125.903 280.113 127.426 270.914 134.668 263.219C135.671 262.154 136.808 261.214 138.135 259.984C137.095 259.905 136.307 259.754 135.531 259.795C124.969 260.356 116.754 268.22 115.469 278.755C114.429 287.284 116.415 295.031 121.076 302.15C125.519 308.933 131.492 313.806 139.386 316.007C141.79 316.677 144.356 316.756 146.847 317.105V317.098ZM274.004 164.77C278.917 169.707 281.71 175.471 282.799 182.055C291.349 179.61 297.984 170.787 298.327 160.963C298.745 148.964 290 139.483 283.119 137.605C284.298 142.658 284.091 147.58 282.52 152.448C280.941 157.351 277.919 161.26 274.004 164.767V164.77ZM252.145 120.776C252.258 121.205 252.258 121.344 252.325 121.434C257.152 128.113 258.893 135.483 257.424 143.614C257.33 144.144 257.518 144.916 257.876 145.303C261.23 148.979 263.558 153.204 264.971 157.964C265.107 158.427 265.593 158.867 266.03 159.149C267.236 159.928 268.566 160.53 269.719 161.373C270.722 162.107 271.355 161.918 272.071 161.038C274.35 158.235 276.005 155.097 276.788 151.59C279.381 139.994 274.934 129.565 264.696 123.549C260.921 121.329 256.719 120.354 252.148 120.776H252.145ZM177.335 218.258C177.429 218.062 177.52 217.87 177.614 217.675C176.608 216.034 175.636 214.375 174.584 212.761C170.481 206.462 164.071 203.941 157.145 202.482C154.014 201.823 150.958 202.839 147.977 203.941C145.905 204.709 144.951 205.902 144.756 208.182C144.383 212.501 142.638 216.41 140.113 219.913C139.409 220.891 139.198 221.708 139.518 222.829C140.644 226.783 141.134 230.832 140.43 234.899C139.981 237.491 141.36 239.102 143.03 241.201C143.783 232.536 147.431 225.794 154.813 221.9C161.75 218.243 169.072 215.12 177.335 218.254V218.258ZM304.134 164.093C303.037 166.603 302.167 169.169 300.856 171.479C297.359 177.653 291.831 181.378 285.274 183.763C284.524 184.038 283.266 184.482 283.239 184.907C283.111 186.969 282.663 189.407 283.556 191.047C285.384 194.419 287.29 197.681 288.206 201.443C288.304 201.85 289.02 202.444 289.385 202.403C296.115 201.631 301.707 198.73 305.735 193.2C310.261 186.984 311.049 180.076 309.006 172.826C308.075 169.522 306.417 166.52 304.138 164.086L304.134 164.093ZM162.47 129.956C164.55 131.062 166.622 131.965 168.465 133.203C170.319 134.452 171.935 136.048 173.684 137.459C173.951 137.673 174.354 137.786 174.709 137.82C182.942 138.614 189.827 142.094 195.294 148.261C196.862 150.029 198.03 152.155 199.624 153.901C200.189 154.521 201.455 154.6 202.424 154.683C202.593 154.698 203.06 153.502 203.06 152.866C203.094 146.233 201.338 140.122 197.333 134.776C192.005 127.665 185.049 123.65 175.941 124.121C170.767 124.388 166.242 126.299 162.473 129.952L162.47 129.956ZM146.089 248.327C146.376 248.203 146.689 248.136 146.915 247.959C150.871 244.9 155.442 243.015 159.979 241.051C160.748 240.716 161.482 240.129 162.033 239.486C164.731 236.344 167.96 233.959 171.788 232.378C174.81 231.133 177.829 229.884 180.798 228.657C174.573 222.385 164.007 219.311 154.933 224.628C146.655 229.481 143.942 240.204 146.086 248.324L146.089 248.327ZM404.582 222.171C404.906 222.306 405.219 222.46 405.55 222.569C406.379 222.844 407.446 222.995 407.092 224.233C406.692 225.625 405.629 224.977 404.752 224.816C402.596 224.424 400.452 223.822 398.282 223.702C394.468 223.491 390.628 223.431 386.815 223.593C384.177 223.706 381.558 224.296 378.932 224.673C378.958 224.853 378.981 225.034 379.007 225.218C379.252 225.199 379.501 225.181 379.746 225.158C386.114 224.541 392.482 223.608 398.851 225.034C399.45 225.166 400.339 225.873 400.358 226.343C400.411 227.645 399.329 227.502 398.444 227.318C393.767 226.347 389.065 226.584 384.381 227.096C376.015 228.006 367.556 228.668 360.796 234.655C359.842 235.501 358.961 234.967 358.761 233.635C358.689 233.168 358.509 232.721 358.369 232.224C355.411 233.609 354.288 236.035 353.067 238.985C354.367 238.067 355.283 237.416 356.199 236.773C356.979 236.224 357.909 235.463 358.524 236.698C358.727 237.108 358.064 238.206 357.521 238.688C355.999 240.042 354.337 241.239 352.702 242.522C354.446 244.241 356.01 245.009 358.071 243.696C358.836 243.207 359.854 243.12 360.743 242.815C367.443 240.52 374.35 238.688 380.782 235.802C389.14 232.051 398.123 230.757 406.745 228.097C407.872 227.75 408.783 227.457 408.241 225.922C408.098 225.516 408.474 224.74 408.855 224.421C409.051 224.255 410.11 224.609 410.212 224.914C410.762 226.607 412.111 226.411 413.411 226.524C415.528 226.712 417.639 226.998 419.756 227.216C420.265 227.269 420.785 227.224 421.297 227.224C421.335 227.024 421.377 226.825 421.414 226.629C416.067 224.278 410.683 222.062 404.582 222.171ZM251.056 139.332C251.775 132.176 247.065 122.115 238.289 117.295C231.729 113.695 221.739 113.951 216.66 118.014C216.871 118.165 217.063 118.315 217.266 118.439C223.729 122.348 227.896 128.733 233.571 133.489C233.801 133.685 233.974 133.974 234.106 134.253C234.841 135.788 235.975 136.39 237.724 136.191C238.881 136.059 240.128 136.172 241.255 136.473C244.552 137.349 247.807 138.373 251.048 139.332H251.056ZM201.255 258.836C201.18 259.16 201.097 259.303 201.139 259.385C203.874 265.168 205.529 271.203 205.51 277.652C205.51 278.092 206.079 278.773 206.531 278.943C217.398 282.999 229.513 280.056 235.681 268.916C236.94 266.643 237.543 264.009 238.447 261.545C238.251 261.391 238.055 261.236 237.859 261.086C232.26 265.014 226.155 266.986 219.301 266.429C212.462 265.872 206.561 263.155 201.252 258.832L201.255 258.836ZM252.909 110.29C255.807 112.562 258.716 114.861 261.652 117.126C262.032 117.42 262.53 117.623 263.004 117.728C270.307 119.353 275.989 123.364 279.739 129.757C281.193 132.24 283.141 132.443 285.417 132.635C288.146 122.405 285.248 113.845 274.32 107.329C268.054 103.592 257.476 105.248 252.909 110.29ZM310.389 193.926C304.352 199.784 297.551 204.099 288.813 204.908C289.468 210.661 288.281 215.948 285.839 221.019C302.676 223.48 314.685 208.408 310.389 193.926ZM60.4278 247.18C60.8611 246.988 61.3283 246.849 61.7165 246.589C67.949 242.496 71.2236 236.476 72.1957 229.327C73.8952 216.847 70.2514 205.917 61.5356 196.8C57.5489 192.628 52.6352 189.851 46.8661 188.967C44.707 188.636 42.4536 188.914 40.2417 188.914C63.9924 195.498 73.9818 229.658 60.424 247.18H60.4278ZM253.946 236.216C252.503 241.299 251.135 246.1 249.729 251.055C257.119 252.756 264.142 251.473 270.251 246.205C275.157 241.973 277.301 236.479 277.719 229.511C270.262 235.249 262.484 237.947 253.949 236.216H253.946ZM84.6571 218.378C89.94 215.583 93.3954 211.184 95.3662 205.668C97.8117 198.821 97.9286 191.823 95.9616 184.817C93.0789 174.549 87.3814 166.531 77.3581 162.11C74.012 160.635 70.4624 160.158 66.3588 160.647C89.3258 167.453 99.6619 200.1 84.6571 218.374V218.378ZM344.257 234.045C344.257 234.022 344.257 233.996 344.257 233.974C345.757 233.872 347.261 233.808 348.757 233.661C354.563 233.093 358.478 229.865 359.451 224.755C360.042 221.64 359.662 218.653 356.971 216.595C354.284 214.54 351.206 214.525 348.267 215.996C346.91 216.677 345.663 217.776 344.676 218.946C341.28 222.957 340.387 228.048 338.986 232.897C338.914 233.15 339.69 233.947 340.124 233.996C341.488 234.143 342.874 234.049 344.254 234.049L344.257 234.045ZM163.37 242.435C176.751 243.538 186.303 250.028 192.943 260.86C199.628 271.768 200.95 283.296 195.667 295.618C202.797 289.15 206.35 274.924 198.968 260.57C191.99 246.992 177.252 238.744 163.37 242.435ZM117.176 198.877C126.084 193.249 129.728 184.772 129.785 174.715C129.841 164.575 126.224 155.718 118.827 148.622C114.603 144.566 109.504 142.124 103.652 141.383C102.921 141.289 102.156 141.454 101.407 141.499C112.941 146.266 119.976 154.773 123.194 166.433C126.427 178.135 124.811 189.08 117.176 198.873V198.877ZM336.291 233.985C336.092 232.284 335.982 231.125 335.817 229.974C335.376 226.889 335.104 223.758 334.392 220.737C333.808 218.258 332.429 216.091 329.829 215.131C326.106 213.758 321.403 215.699 319.369 219.383C317.258 223.205 318.005 228.33 321.373 230.553C323.19 231.754 325.417 232.529 327.564 232.984C330.326 233.575 333.198 233.654 336.291 233.981V233.985ZM341.296 211.177C341.42 211.41 341.544 211.643 341.669 211.877C345.87 211.395 350.155 211.275 354.251 210.334C359.111 209.216 362.409 206.09 363.166 200.864C363.622 197.715 362.032 195.322 358.919 194.573C355.603 193.772 352.589 194.52 349.91 196.605C345.09 200.348 343.519 205.951 341.296 211.18V211.177ZM138.651 134.599C150.005 138.952 157.142 147.169 160.454 158.596C163.781 170.068 162.123 180.847 154.67 190.63C162.813 186.28 169.561 172.22 165.058 156.963C161.245 144.028 150.17 134.565 138.647 134.599H138.651ZM338.831 204.133C338.684 203.08 338.579 201.191 338.134 199.381C337.354 196.195 335.451 194.633 332.305 194.475C328.522 194.279 325.417 195.698 323.205 198.779C320.141 203.05 321.332 208.366 326.14 209.86C329.773 210.989 333.763 211.011 337.607 211.391C337.965 211.425 338.726 210.511 338.775 209.988C338.925 208.321 338.831 206.635 338.831 204.133ZM345.636 191.695C351.5 191.108 357.073 191.717 362.054 189.035C363.976 188 365.743 186.45 367.168 184.783C368.404 183.338 369.259 181.378 368.2 179.38C367.156 177.408 365.174 177.01 363.181 177.051C361.632 177.081 360.016 177.22 358.558 177.702C351.862 179.907 348.96 185.641 345.633 191.698L345.636 191.695ZM192.283 194.422C201.346 187.349 205.951 171.817 198.29 156.414C193.9 147.583 180.764 138.7 174.494 140.585C196.244 147.809 205.449 175.651 192.283 194.422ZM337.998 191.74C338.021 191.631 338.044 191.518 338.066 191.409C338.816 191.454 339.566 191.506 340.316 191.544C343.353 191.687 343.639 191.375 343.383 188.395C343.338 187.849 343.545 187.289 343.575 186.732C343.666 185.061 344.073 183.304 343.688 181.743C343.372 180.445 342.366 178.929 341.224 178.289C336.766 175.791 328.812 179.166 327.24 184.008C326.291 186.931 327.063 189.012 329.995 190.002C332.565 190.867 335.323 191.187 337.995 191.747L337.998 191.74ZM201.372 157.396C212.677 160.842 220.292 167.675 224.524 178.12C228.744 188.542 228.092 198.723 222.323 208.844C230.082 202.102 232.633 188.858 228.605 177.837C223.473 163.796 210.646 157.023 201.372 157.396ZM137.875 235.821C138.011 235.121 138.09 234.835 138.12 234.545C139.002 226.178 136.631 218.675 131.639 212.057C128.104 207.373 123.545 203.866 117.689 202.455C116.686 202.214 115.537 202.568 114.456 202.651C114.452 202.854 114.448 203.061 114.444 203.264C114.855 203.509 115.247 203.783 115.673 203.994C126.224 209.224 131.891 218.058 133.824 229.323C134.325 232.235 136.134 233.624 137.871 235.821H137.875ZM283.149 235.437C292.351 235.938 301.251 228.014 302.22 220.703C299.454 221.557 296.609 222.807 293.643 223.243C290.61 223.691 287.46 223.341 284.479 223.341C284.027 227.446 283.597 231.377 283.149 235.437ZM344.841 171.949C345.162 173.006 345.29 173.898 345.693 174.643C346.334 175.836 347.253 176.886 347.875 178.09C348.515 179.331 349.243 179.38 350.256 178.631C353.079 176.551 355.958 174.549 358.705 172.374C359.861 171.46 360.875 170.286 361.712 169.063C362.759 167.524 362.341 166.407 360.649 165.583C360.091 165.312 359.481 165.094 358.87 164.996C354.081 164.236 349.921 165.617 346.484 168.962C345.693 169.733 345.361 170.975 344.849 171.949H344.841ZM240.723 229.688C252.695 215.315 245.403 193.395 232.968 186.461C232.64 188.497 232.81 190.31 234.6 191.683C235.188 192.135 235.7 192.718 236.145 193.316C242.374 201.676 245.264 210.917 243.203 221.328C242.653 224.12 241.594 226.81 240.723 229.692V229.688ZM141.685 247.989C137.483 234.154 123.65 224.793 112.956 227.457C113.879 227.728 114.648 227.976 115.428 228.179C119.313 229.176 122.734 231.043 125.888 233.507C129.559 236.37 132.347 239.937 134.71 243.888C135.022 244.411 135.362 245.047 135.859 245.302C137.683 246.239 139.582 247.037 141.685 247.993V247.989ZM217.621 126.551C226.061 130.709 231.578 137.169 234.159 145.928C236.748 154.725 235.7 163.19 230.576 171.55C237.599 165.297 240.478 152.211 235.599 141.345C231.751 132.778 222.953 126.48 217.624 126.547L217.621 126.551ZM119.758 200.42C126.405 202.918 131.473 207.256 135.531 213.412C136.673 208.897 136.722 204.829 135.998 200.758C135.927 200.348 135.068 199.889 134.51 199.78C131.883 199.265 129.012 199.363 126.653 198.298C123.733 196.985 122.011 198.147 120.149 199.893C120.063 199.976 120.002 200.089 119.758 200.42ZM186.673 123.248C199.997 129.727 205.755 140.649 205.525 155.18C206.376 155.334 207.141 155.469 207.891 155.601C211.117 140.785 200.2 124.677 186.673 123.248ZM258.773 181.118C264.843 172.137 265.243 162.678 260.446 153.159C256.617 145.57 250.362 140.758 241.865 139.137C249.982 142.572 255.792 148.294 259.123 156.467C262.484 164.721 262.138 172.927 258.777 181.115L258.773 181.118ZM212.421 122.585C207.605 117.991 195.366 118.063 191.718 121.739C193.497 122.706 195.26 123.782 197.129 124.625C198.068 125.046 199.262 125.343 200.246 125.163C204.345 124.41 208.407 123.455 212.421 122.589V122.585ZM266.192 162.016L265.631 162.381C266.109 163.055 266.513 163.803 267.078 164.39C268.679 166.057 270.556 167.502 271.958 169.319C277.87 176.98 280.044 185.573 277.919 195.107C277.614 196.484 277.105 197.816 276.585 199.528C284.046 189.2 281.299 169.963 266.196 162.016H266.192ZM245.151 261.47C251.376 261.214 256.101 258.535 260.348 253.775C259.263 253.87 258.656 253.994 258.061 253.96C255.14 253.787 252.175 253.821 249.318 253.286C247.453 252.936 246.579 253.715 246.213 255.055C245.663 257.075 245.501 259.201 245.147 261.47H245.151ZM185.414 234.794C179.524 232.299 169.29 234.53 165.887 239.177C166.065 239.233 166.227 239.316 166.392 239.328C170.161 239.598 173.929 239.877 177.697 240.106C178.138 240.133 178.688 240.027 179.027 239.772C181.201 238.127 183.327 236.427 185.414 234.79V234.794ZM245.456 251.477C252.299 244.012 252.047 229.146 247.216 222.43C246.794 224.398 245.773 226.245 246.202 227.656C248.056 233.778 248.689 239.888 247.22 246.138C246.813 247.865 246.112 249.52 245.456 251.477ZM142.4 198.843C141.01 199.107 139.714 199.355 138.361 199.611C139.115 205.134 139.111 210.33 137.434 215.458C137.159 216.294 137.686 217.389 137.841 218.367C142.344 212.482 143.388 206.015 142.4 198.847V198.843ZM164.369 139.189C160.382 134.757 151.274 131.589 146.602 133.199C146.621 133.256 146.625 133.35 146.662 133.365C150.709 135.092 154.523 137.191 157.699 140.307C157.91 140.514 158.393 140.593 158.705 140.525C160.574 140.119 162.428 139.656 164.373 139.189H164.369ZM361.632 230.384C364.647 229.206 367.356 228.3 369.907 227.069C370.898 226.592 372.206 225.922 372.089 224.27C372.063 223.901 372.684 223.333 373.133 223.108C376.471 221.418 379.821 219.751 383.205 218.16C384.645 217.483 386.182 217.009 387.674 216.444C387.587 216.267 387.497 216.091 387.41 215.917C376.784 216.82 368.939 222.739 361.636 230.388L361.632 230.384ZM240 115.52C240.403 115.805 240.795 116.118 241.217 116.377C245.848 119.241 248.949 123.398 251.229 128.237C253 131.992 253.674 135.972 253.663 140.096C253.663 141.101 253.671 142.132 255.08 142.233C257.623 130.63 249.575 117.995 240.004 115.523L240 115.52ZM265.808 121.159C278.819 130.125 282.659 141.736 277.926 156.282C285.519 145.367 280.658 126.611 265.808 121.159ZM122.908 247.12C123.266 247.195 123.62 247.281 123.982 247.338C128.914 248.098 133.357 249.998 137.298 253.049C139.947 255.1 141.055 254.859 142.664 251.672C136.718 247.458 130.282 245.336 122.908 247.12ZM283.164 220.177C288.176 213.156 287.426 200.371 282.177 193.956C281.314 195.186 281.144 196.375 281.819 197.782C282.569 199.351 283.228 200.988 283.71 202.658C285.387 208.438 285.195 214.206 283.164 220.173V220.177ZM340.026 236.555C339.615 238.951 340.124 239.779 342.362 240.14C344.627 240.505 346.914 240.738 349.284 241.043C350.102 239.328 350.931 237.582 351.771 235.821C347.675 236.077 343.835 236.314 340.026 236.551V236.555ZM169.083 219.883C169.84 220.094 170.598 220.316 171.359 220.511C175.764 221.655 179.596 223.924 182.731 227.107C184.513 228.917 186.345 228.826 188.851 228.717C183.394 222.622 177.109 219.315 169.083 219.879V219.883ZM299.661 168.273C305.788 155.831 298.632 139.998 286.435 136.029C298.32 143.753 302.732 154.247 299.661 168.273ZM203.784 287.649C208.272 287.499 212.029 285.997 215.476 283.412C211.976 282.709 208.637 282.035 205.227 281.347C204.767 283.345 204.3 285.388 203.784 287.649ZM304.722 159.646C304.552 159.732 304.379 159.819 304.209 159.905C304.624 160.575 304.959 161.313 305.468 161.903C308.377 165.271 310.502 169.033 311.61 173.375C312.631 177.375 312.688 181.382 311.734 185.915C315.476 178.601 313.068 165.873 304.722 159.65V159.646ZM381.705 221.189C381.758 221.358 381.807 221.527 381.86 221.697C385.33 221.256 388.801 220.827 392.268 220.372C392.626 220.327 393.27 220.135 393.266 220.022C393.213 217.976 395.271 218.408 396.627 217.302C390.998 217.449 386.382 219.424 381.705 221.185V221.189ZM241.224 112.637C243.587 114.12 245.855 115.384 247.939 116.904C250.072 118.462 250.837 118.635 253.486 117.235C249.918 114.368 245.927 112.826 241.224 112.637ZM156.987 131.736C157.582 132.014 158.208 132.244 158.766 132.582C161.098 134.005 163.657 135.186 165.65 136.988C167.267 138.448 168.57 138.441 170.439 137.617C166.554 134.117 162.157 132.089 156.983 131.736H156.987ZM189.08 238.093C188.353 240.121 187.739 241.724 187.234 243.357C187.14 243.662 187.381 244.238 187.652 244.46C189.137 245.664 190.678 246.8 192.479 248.169C191.319 244.723 190.283 241.657 189.08 238.093ZM184.51 221.253C184.272 217.671 182.102 215.029 178.074 213.573C179.875 216.493 180.142 220.609 184.51 221.253ZM313.389 204.521C315.073 199.682 315.058 194.878 313.083 190.058C312.718 190.543 312.341 191.126 312.462 191.574C313.607 195.837 314.127 200.126 313.389 204.521ZM242.867 257.76C242.219 258.354 241.19 258.844 240.987 259.562C240.245 262.222 239.781 264.958 239.137 268.009C241.454 264.83 242.754 261.613 242.864 257.76H242.867ZM184.804 242.936C185.452 241.051 186.006 239.429 186.563 237.808C186.413 237.702 186.262 237.601 186.111 237.495C184.491 238.575 182.874 239.659 180.96 240.938C182.396 241.687 183.436 242.225 184.804 242.94V242.936ZM287.577 118.672C289.02 123.477 289.174 128.094 288.085 132.74C290.418 129.042 290.222 120.584 287.577 118.672ZM282.09 226.964C281.815 226.862 281.54 226.761 281.265 226.659C280.873 227.19 280.202 227.686 280.134 228.255C279.814 230.9 279.663 233.567 279.452 236.224L280.021 236.34C280.711 233.214 281.401 230.087 282.086 226.964H282.09ZM211.343 118.808C214.719 120.238 216.908 123.748 221.261 124.459C218.28 121.412 214.972 119.85 211.343 118.808ZM332.795 213.622C334.144 215.455 335.263 216.975 336.487 218.638C336.778 217.046 337.049 215.575 337.347 213.953C335.756 213.837 334.377 213.739 332.798 213.626L332.795 213.622ZM342.087 214.029C341.951 215.545 341.831 216.907 341.691 218.461C343.413 216.817 344.898 215.402 346.597 213.784C344.996 213.871 343.7 213.942 342.083 214.029H342.087ZM361.768 226.652C364.025 224.729 366.282 222.803 368.539 220.88C365.8 222.253 362.906 223.454 361.768 226.652ZM341.45 194.065C340.237 193.975 339.14 193.892 337.795 193.79C338.718 195.216 339.445 196.341 340.327 197.7C340.715 196.447 341.039 195.397 341.45 194.069V194.065ZM182.912 231.261C182.889 231.347 182.871 231.434 182.848 231.52C184.811 232.028 186.771 232.54 188.734 233.048C188.869 232.905 189.001 232.758 189.137 232.615C188.719 232.164 188.331 231.366 187.871 231.321C186.232 231.163 184.566 231.257 182.912 231.257V231.261ZM325.337 212.396C324.214 211.734 323.28 211.18 322.127 210.503C322.021 211.587 321.935 212.452 321.825 213.547C323.141 213.114 324.128 212.791 325.337 212.396ZM334.882 237.706C335.093 236.186 332.911 235.482 329.588 236.099C331.498 236.679 333.186 237.19 334.882 237.706ZM152.782 199.445C151.47 198.189 150.626 198.52 148.056 201.24C149.76 200.593 151.233 200.032 152.782 199.445ZM349.303 193.96C346.017 193.914 345.972 193.96 346.066 196.77C347.102 195.871 348.056 195.043 349.303 193.96Z" fill="white"/>
<path d="M49.3168 222.645C49.2377 222.619 49.2414 222.506 49.3168 222.487C51.3629 222.145 51.6606 219.383 51.6078 218.138C51.3931 213.295 46.8901 212.535 45.4733 212.415C45.2359 212.392 45.0512 212.159 45.0362 211.892L44.844 207.994C44.8327 207.712 44.633 207.49 44.3843 207.478L43.4498 207.441C43.2011 207.43 43.0014 207.636 43.0127 207.919L43.2124 211.813C43.2237 212.095 43.0164 212.291 42.7715 212.287L40.5671 212.219C40.3184 212.208 40.1375 211.997 40.1225 211.719L39.9303 207.813C39.919 207.531 39.708 207.294 39.463 207.283L38.5323 207.249C38.2836 207.238 38.099 207.46 38.1103 207.742L38.2836 211.613C38.2949 211.896 38.1027 212.144 37.8578 212.14L36.7537 212.095L33.6638 212.001C33.4151 211.99 33.2079 212.155 33.2192 212.437L33.2946 213.705C33.3059 213.988 33.5169 214.206 33.7618 214.221L36.23 214.319C36.4787 214.33 36.6821 214.567 36.6972 214.849L37.4923 230.761C37.5036 231.043 37.2248 231.257 36.9798 231.254L34.8395 231.171C34.6285 231.159 34.4514 231.325 34.4212 231.57L34.2517 232.954C34.214 233.266 34.4891 233.624 34.7641 233.635L38.8149 233.763C39.0636 233.774 39.2407 233.985 39.2558 234.267L39.4668 238.44C39.4781 238.722 39.6891 238.959 39.9341 238.97L40.8686 239.008C41.1173 239.019 41.3547 238.801 41.3434 238.515L41.121 234.339C41.1097 234.057 41.2755 233.831 41.5205 233.835L43.5666 233.902C43.8153 233.914 44.0263 234.162 44.0451 234.44L44.2599 238.624C44.2712 238.906 44.4596 239.143 44.7083 239.155L45.6428 239.192C45.8915 239.204 46.0762 238.952 46.0649 238.666L45.8576 234.565C45.8425 234.275 46.0611 234.03 46.3098 234.049C48.0959 234.169 52.8476 234.369 53.4542 229.086C53.9931 224.428 50.6696 223.017 49.3168 222.649V222.645ZM40.326 215.214C40.4051 214.954 40.5709 214.736 40.797 214.721C47.8472 214.273 47.5608 218.499 47.5608 218.499C47.7455 222.713 42.568 222.073 41.0871 221.802C40.8648 221.761 40.6877 221.539 40.5935 221.279L40.326 215.214ZM49.1359 227.984C49.3243 232.273 43.1295 231.69 41.4677 231.464C41.2378 231.434 41.1173 231.276 41.1097 231.013L40.7518 224.391C40.7405 224.127 40.9062 223.913 41.1323 223.898C49.4788 223.326 49.1322 227.988 49.1322 227.988L49.1359 227.984Z" fill="white"/>
<path d="M35.2002 225.376L35.1701 224.756C35.0646 222.697 33.8964 221.384 32.1216 221.328L26.7369 221.166C26.232 221.151 26.0059 220.91 25.9758 220.368L25.9456 219.797C25.923 219.371 26.2998 219.018 26.6239 219.025L34.733 219.27L34.6011 216.723L26.492 216.478C24.7813 216.425 23.6998 217.735 23.8015 219.729L23.8317 220.301C23.9409 222.434 25.045 223.691 26.865 223.743L32.2535 223.905C32.7735 223.92 32.9996 224.15 33.026 224.688L33.0561 225.309C33.0788 225.734 32.6944 226.087 32.3628 226.08L24.2424 225.832L24.3743 228.398L32.4947 228.642C34.213 228.695 35.302 227.382 35.1965 225.373L35.2002 225.376Z" fill="white"/>
<path d="M175.113 268.047C174.035 264.333 170.919 263.438 167.226 263.535L166.175 258.328L163.371 258.682L164.393 263.75C163.658 263.844 162.908 263.953 162.162 264.066L161.133 258.964L158.333 259.318L159.381 264.521C158.778 264.611 158.183 264.702 157.602 264.773V264.758L153.732 265.247L154.414 268.63C154.414 268.63 156.476 268.325 156.449 268.37C157.583 268.227 158.103 268.927 158.341 269.555L159.539 275.485C159.618 275.474 159.72 275.466 159.841 275.47C159.746 275.481 159.648 275.493 159.543 275.508L161.22 283.815C161.25 284.225 161.171 284.895 160.379 284.997C160.421 285.027 158.341 285.252 158.341 285.252L158.548 289.109L162.196 288.646C162.874 288.56 163.545 288.488 164.2 288.413L165.263 293.677L168.063 293.323L167.011 288.112C167.784 288.033 168.53 287.946 169.253 287.852L170.297 293.037L173.101 292.683L172.042 287.427C176.692 286.524 179.718 284.767 179.119 279.71C178.636 275.639 176.598 274.055 173.775 273.668C175.211 272.528 175.893 270.748 175.102 268.035L175.113 268.047ZM173.463 279.801C174.258 283.736 168.21 284.041 166.311 284.282L164.905 277.306C166.804 277.065 172.637 275.696 173.463 279.801ZM170.173 270.123C170.893 273.702 165.84 273.912 164.257 274.115L162.98 267.787C164.562 267.588 169.416 266.391 170.169 270.123H170.173Z" fill="white"/>
</g>
<defs>
<clipPath id="clip0_259_9573">
<rect width="412" height="262" fill="white" transform="translate(12 87)"/>
</clipPath>
</defs>
</svg>
